<svg width="96" height="96" viewBox="0 0 480 480" fill="none" xmlns="http://www.w3.org/2000/svg">
<path d="M251.697 373.294C251.854 396.166 248.807 413.193 242.558 424.374C236.307 435.356 223.957 440.911 205.508 441.037L57.122 442.052C44.6467 442.138 34.7778 437.929 27.5152 429.426C20.2526 420.923 16.571 409.313 16.4703 394.595L14.0265 37.489L17.4263 33.5872L237.501 32.0812C238.421 38.0418 239.074 43.706 239.463 49.0736C239.849 54.2423 240.058 59.1139 240.09 63.6883C240.121 68.2628 239.632 73.8353 238.623 80.4059C237.789 86.9752 236.426 93.2499 234.534 99.2298L118.303 100.025C114.613 100.05 109.606 100.085 103.28 100.128C96.9545 100.171 90.4526 100.116 83.7743 99.9631C83.8301 108.118 83.9663 115.178 84.1828 121.143C84.398 126.91 84.5321 133.671 84.5852 141.428L85.0058 202.885C91.507 202.84 97.8325 202.797 103.982 202.755C110.306 202.513 115.313 202.379 119.003 202.354L208.615 201.741C210.054 206.703 211.06 212.365 211.63 218.726C212.375 224.886 212.763 230.155 212.793 234.53C212.824 239.105 212.509 244.477 211.849 250.647C211.362 256.618 210.434 262.193 209.064 267.374L119.452 267.987C115.763 268.012 110.755 268.047 104.429 268.09C98.2782 267.933 91.9514 267.778 85.4488 267.623L85.9347 338.627C85.9796 345.19 85.9332 351.257 85.7956 356.827C85.658 362.397 85.6124 368.563 85.6587 375.325L85.6607 375.624C91.2807 375.187 97.077 374.849 103.05 374.61C109.022 374.37 115.523 374.226 122.551 374.178L251.697 373.294Z" fill="#6E0019"/>
<path d="M402.521 298.295C402.513 293.081 402.505 287.866 402.498 282.652C402.646 277.279 402.951 271.985 403.412 266.77L371.987 266.816C362.762 266.83 355.333 265.024 349.699 261.398C344.222 257.771 341.475 250.586 341.459 239.841C341.453 235.574 341.915 231.07 342.846 226.328C343.777 221.428 344.865 217.081 346.11 213.287L418.812 213.18C434.915 213.156 446.1 216.774 452.364 224.034C458.629 231.293 461.77 241.006 461.788 253.174L461.971 377.137C448.22 382.213 430.794 386.822 409.693 390.961C388.592 395.101 366.55 397.187 343.567 397.221C310.734 397.27 284.067 390.119 263.564 375.77C243.061 361.263 228.023 341.533 218.449 316.581C209.031 291.47 204.299 262.955 204.252 231.036C204.208 201.645 208.158 176.199 216.1 154.697C224.198 133.195 235.116 115.481 248.854 101.556C262.749 87.6296 278.29 77.2567 295.478 70.4367C312.822 63.6165 330.641 60.1929 348.933 60.1659C369.415 60.1357 389.432 63.2665 408.985 69.5583C428.537 75.8502 445.826 84.1205 460.85 94.3694C459.926 103.694 456.5 112.706 450.571 121.405C444.643 129.947 438.476 136.355 432.072 140.631C420.647 132.589 407.895 126.051 393.817 121.015C379.738 115.979 365.663 113.472 351.592 113.492C335.332 113.516 320.954 117.488 308.458 125.407C296.118 133.326 286.365 145.982 279.198 163.374C272.188 180.608 268.704 203.367 268.746 231.652C268.804 270.998 276.116 299.983 290.684 318.607C305.252 337.074 326.45 346.286 354.28 346.245C363.192 346.232 371.712 345.667 379.84 344.548C387.969 343.272 395.549 341.839 402.583 340.249L402.521 298.295Z" fill="#6E0019"/>
<circle cx="275" cy="237" r="30" fill="#A33F38"/>
<path d="M274.5 185L286.191 211.25H262.809L274.5 185Z" fill="#A33F38"/>
<path d="M310.381 197.991L301.619 225.359L284.177 209.785L310.381 197.991Z" fill="#A33F38"/>
<path d="M237.728 198.361L264.353 209.169L247.505 225.382L237.728 198.361Z" fill="#A33F38"/>
<path d="M222.553 234.489L249.259 223.882L248.302 247.245L222.553 234.489Z" fill="#A33F38"/>
<path d="M234.418 269.379L247.649 243.87L262.23 262.15L234.418 269.379Z" fill="#A33F38"/>
<path d="M257.544 283.511L256.383 254.799L278.11 263.442L257.544 283.511Z" fill="#A33F38"/>
<path d="M328.003 234.507L301.75 246.193L301.755 222.81L328.003 234.507Z" fill="#A33F38"/>
<path d="M285.34 289.805L269.292 265.968L292.324 261.931L285.34 289.805Z" fill="#A33F38"/>
<path d="M318.502 267.922L290.24 262.726L303.459 243.438L318.502 267.922Z" fill="#A33F38"/>
</svg>
